<svg width="56" height="56" viewBox="0 0 56 56" fill="none" xmlns="http://www.w3.org/2000/svg">
<path fill-rule="evenodd" clip-rule="evenodd" d="M0.927734 0.635032C0.927734 0.689021 1.27704 1.54555 1.54488 2.14851C1.6318 2.34418 1.80275 2.74443 1.92468 3.03795C2.0467 3.33146 2.26438 3.83177 2.40852 4.14975C2.55258 4.46773 2.75218 4.91796 2.85207 5.15037L3.03377 5.57286L22.4126 5.57766C33.1562 5.58033 42.086 5.61777 42.4526 5.66162C44.2483 5.87678 45.4062 6.14583 46.3317 6.56298C47.0272 6.87642 47.7988 7.46772 48.1718 7.97319C48.5084 8.4293 48.6197 8.66909 48.8773 9.49272C49.0874 10.1647 48.9329 12.2377 48.6092 13.0886C48.1518 14.2913 47.5206 15.1968 46.6419 15.911C45.5003 16.8388 43.5539 17.6178 41.5709 17.9404C40.0264 18.1916 39.388 18.2187 36.193 18.1679C34.3746 18.1391 32.8075 18.1005 32.7105 18.0821C32.4914 18.0407 32.4954 17.8958 32.7564 16.4685C32.8638 15.8815 32.9808 15.2211 33.0165 15.0009C33.1994 13.8761 33.7426 10.9518 33.7799 10.8907C33.8037 10.8521 32.2324 10.8206 30.2885 10.8206C27.5358 10.8206 26.7473 10.8451 26.7238 10.9317C26.6945 11.0393 26.5902 11.5222 26.4066 12.3993C26.3579 12.6317 26.2223 13.3021 26.105 13.8891C25.9877 14.4762 25.8667 15.0765 25.836 15.2233C25.8053 15.3701 25.748 15.6502 25.7086 15.8459C25.6693 16.0416 25.4886 16.9221 25.307 17.8027C25.1255 18.6832 24.9382 19.6038 24.8907 19.8484C24.8432 20.093 24.7728 20.4532 24.7341 20.6489C24.6077 21.2881 24.0086 24.1979 23.9282 24.5624C23.885 24.7581 23.8106 25.1183 23.7629 25.3629C23.7151 25.6075 23.6142 26.1078 23.5387 26.4747C23.4631 26.8416 23.3636 27.3419 23.3174 27.5865C23.2712 27.8311 23.1934 28.2114 23.1446 28.4315C23.0956 28.6517 23.0209 29.0119 22.9783 29.232C22.9358 29.4521 22.7531 30.3527 22.5724 31.2333C22.3916 32.1138 22.2089 33.0144 22.1664 33.2345C21.9263 34.478 21.8436 34.8437 21.7905 34.8974C21.7579 34.9302 21.6961 34.9197 21.6532 34.874C21.6103 34.8284 21.3504 34.2309 21.0756 33.5464C20.8008 32.8619 20.5192 32.1714 20.4499 32.0121C20.1573 31.3407 20.0579 31.1044 19.7485 30.3438C19.5695 29.9035 19.3523 29.3832 19.266 29.1875C19.1797 28.9919 19.0212 28.6116 18.9136 28.3426C18.8061 28.0735 18.6465 27.6933 18.5589 27.4976C18.4713 27.3019 18.2727 26.8216 18.1175 26.4303C17.9623 26.0389 17.7647 25.5586 17.6781 25.3629C17.5916 25.1673 17.3341 24.5469 17.1058 23.9843C16.8776 23.4217 16.6012 22.7613 16.4916 22.5167C16.382 22.2721 16.2617 21.9719 16.224 21.8496C16.1864 21.7273 16.0661 21.4272 15.9568 21.1826C15.8474 20.938 15.6114 20.3776 15.4324 19.9373C15.0808 19.0727 14.9782 18.8294 14.6914 18.1817C14.5888 17.9498 14.5049 17.7371 14.5049 17.709C14.5049 17.6809 14.4057 17.4391 14.2844 17.1717C14.1632 16.9043 14.064 16.6663 14.064 16.6428C14.064 16.6193 13.9865 16.4304 13.8919 16.2229C13.7971 16.0156 13.6364 15.629 13.5346 15.3639C13.4328 15.0988 13.2744 14.7153 13.1824 14.5117C13.0905 14.3082 12.9364 13.9397 12.84 13.6929C12.7435 13.4462 12.587 13.0692 12.4918 12.8552C12.3968 12.6412 12.1726 12.1058 11.9936 11.6655C11.8146 11.2253 11.6103 10.735 11.5395 10.576L11.4109 10.2869H8.10888C6.29281 10.2869 4.80691 10.3058 4.80691 10.3287C4.80691 10.3517 4.90204 10.5819 5.01833 10.8401C5.13461 11.0984 5.33677 11.5699 5.4676 11.8879C5.59835 12.2059 5.75889 12.5861 5.82449 12.7329C5.88999 12.8796 6.18746 13.5801 6.48562 14.2894C6.78379 14.9987 7.09871 15.7392 7.18537 15.9349C7.27213 16.1305 7.55116 16.7909 7.8056 17.4024C8.46065 18.9772 8.76226 19.6872 9.01432 20.2486C9.1351 20.5177 9.31213 20.938 9.4077 21.1826C9.58174 21.628 9.6602 21.8148 9.98685 22.5612C10.0831 22.7813 10.4293 23.6018 10.7562 24.3846C11.083 25.1673 11.4213 25.9678 11.5079 26.1634C11.5945 26.3591 11.7724 26.7794 11.9033 27.0974C12.1985 27.8147 12.3166 28.0922 12.5606 28.6428C12.6663 28.8812 12.8317 29.2783 12.9281 29.525C13.0246 29.7718 13.1763 30.137 13.2655 30.3366C13.3546 30.5363 13.7536 31.4801 14.1522 32.434C14.5508 33.3879 14.9478 34.3285 15.0344 34.5242C15.121 34.7199 15.2989 35.1401 15.4299 35.4581C15.757 36.2531 15.8584 36.4902 16.1253 37.0837C16.2523 37.3664 16.3563 37.617 16.3563 37.6406C16.3563 37.6643 16.4402 37.8733 16.5428 38.1052C16.7827 38.647 16.9025 38.9289 17.1945 39.6385C17.3255 39.9565 17.5031 40.3767 17.5893 40.5724C17.998 41.4994 18.2959 42.2077 18.2959 42.2524C18.2959 42.2794 18.391 42.5129 18.5073 42.7711C18.6236 43.0294 18.8256 43.5009 18.9563 43.8189C19.087 44.1368 19.3687 44.7692 19.5824 45.2241C19.7961 45.679 19.971 46.066 19.971 46.0842C19.971 46.1023 20.1839 46.5706 20.4441 47.1249C21.0997 48.5211 21.5579 49.5216 21.5579 49.5569C21.5579 49.5733 21.8158 50.1316 22.131 50.7976C22.4461 51.4637 22.704 52.0259 22.704 52.0472C22.704 52.0683 22.8865 52.477 23.1095 52.9554C23.4888 53.769 23.7934 54.4282 24.1599 55.2292C24.2447 55.4143 24.3285 55.5512 24.3462 55.5333C24.364 55.5156 24.4587 55.1238 24.5569 54.663C24.6552 54.2021 24.7787 53.625 24.8314 53.3804C24.8842 53.1358 24.9583 52.7755 24.9962 52.5799C25.0935 52.0762 25.5886 49.7418 25.9676 47.9992C26.0048 47.828 26.1377 47.1837 26.2628 46.5674C26.3879 45.9511 26.5154 45.3808 26.5462 45.3C26.5968 45.167 26.9165 45.153 29.9208 45.1526C31.7461 45.1524 33.8941 45.1124 34.6942 45.0638C36.0504 44.9814 38.6497 44.7255 38.7495 44.6645C38.7739 44.6497 39.0517 44.6123 39.3668 44.5816C39.682 44.551 40.0986 44.4899 40.2926 44.4462C40.4865 44.4024 40.8832 44.3208 41.1742 44.2648C42.3673 44.0351 44.7847 43.3741 45.406 43.1078C45.503 43.0662 45.7807 42.9613 46.0232 42.8746C46.2656 42.7879 46.9202 42.487 47.4778 42.2059C50.2873 40.7894 52.196 39.015 53.4922 36.6144C54.0408 35.5985 54.6039 33.6648 54.7742 32.2116C54.9558 30.6637 54.8708 28.8847 54.5386 27.2752C54.3453 26.3391 53.8147 25.0947 53.2469 24.2459C53.0688 23.9798 52.6203 23.4591 52.2503 23.089C51.189 22.0275 50.0682 21.372 48.4036 20.8392C47.8552 20.6637 46.8327 20.4265 46.6241 20.4265C46.6087 20.4265 46.5962 20.3918 46.5962 20.3492C46.5962 20.3066 46.8442 20.2237 47.1472 20.1648C47.7635 20.0451 48.5331 19.8423 48.9325 19.6941C49.5923 19.4494 50.7513 18.8455 51.331 18.4442C52.606 17.5618 53.586 16.5874 54.3702 15.4225C54.8323 14.7359 55.4499 13.3933 55.587 12.7773C55.6469 12.5083 55.7312 12.2187 55.7746 12.1337C55.8845 11.9182 55.876 9.15526 55.7652 9.08615C55.7167 9.05591 55.677 8.90631 55.677 8.75368C55.677 8.60105 55.6318 8.33324 55.5764 8.15855C55.05 6.49556 54.3321 5.3255 53.2671 4.3947C52.4271 3.66056 51.9139 3.31323 50.9587 2.83258C49.4087 2.05262 47.7288 1.55623 45.3619 1.17901C44.1893 0.992053 43.1654 0.872511 42.1881 0.808471C41.7274 0.77823 41.1918 0.732337 40.9979 0.706365C40.5129 0.641614 0.927734 0.571081 0.927734 0.635032ZM37.809 22.7902C38.6736 22.8248 39.3397 22.8789 39.2892 22.9105C39.2387 22.942 39.5201 23.019 39.9147 23.0816C41.3074 23.3027 42.5526 23.6892 43.7059 24.2584C44.5707 24.6853 45.0973 25.0493 45.7472 25.6695C46.7017 26.5804 47.2924 27.6669 47.643 29.1561C47.8002 29.8237 47.8577 31.2687 47.7558 31.9893C47.5251 33.6216 46.8875 34.8761 45.6603 36.113C45.0104 36.768 43.7349 37.6536 42.8052 38.0953C42.49 38.2451 41.8552 38.5083 41.3946 38.6801C40.6464 38.9593 40.3067 39.0659 39.1905 39.3721C39.0208 39.4186 38.3464 39.5546 37.6917 39.6742C37.0371 39.794 36.3627 39.9177 36.193 39.9493C35.106 40.1512 30.7828 40.2453 29.7027 40.0904C29.1189 40.0067 28.2452 39.912 28.0158 39.9074C27.8318 39.9039 27.8639 39.6656 28.3582 37.3704C28.4108 37.1258 28.4844 36.7656 28.5217 36.5699C28.5967 36.1767 29.1558 33.4414 29.4034 32.2561C29.8006 30.3556 30.0474 29.1591 30.1096 28.8318C30.1469 28.6361 30.2607 28.0757 30.3624 27.5865C30.4641 27.0974 30.6278 26.2969 30.7259 25.8077C30.8241 25.3185 30.9406 24.7581 30.9848 24.5624C31.029 24.3668 31.1145 23.9665 31.1747 23.673C31.2349 23.3795 31.3191 23.0993 31.3617 23.0504C31.4434 22.9568 33.507 22.7982 35.2232 22.7537C35.7808 22.7392 36.9445 22.7557 37.809 22.7902Z" fill="white"/>
</svg>
