<?xml version="1.0" standalone="no"?>
<!DOCTYPE svg PUBLIC "-//W3C//DTD SVG 20010904//EN"
 "http://www.w3.org/TR/2001/REC-SVG-20010904/DTD/svg10.dtd">
<svg version="1.0" xmlns="http://www.w3.org/2000/svg"
 width="623.000000pt" height="623.000000pt" viewBox="0 0 623.000000 623.000000"
 preserveAspectRatio="xMidYMid meet">
<metadata>
Created by potrace 1.14, written by Peter Selinger 2001-2017
</metadata>
<g transform="translate(0.000000,623.000000) scale(0.100000,-0.100000)"
fill="#000000" stroke="none">
<path d="M23 6200 c-23 -5 -21 -10 69 -220 6 -14 12 -27 13 -30 5 -14 55 -129
92 -210 17 -36 32 -71 35 -79 3 -12 315 -15 2194 -17 2266 -3 2313 -3 2434
-29 14 -3 43 -8 65 -11 99 -15 293 -93 345 -140 88 -78 124 -130 156 -222 20
-58 22 -82 19 -182 -2 -63 -8 -140 -15 -172 -31 -159 -138 -326 -269 -422 -59
-44 -210 -119 -281 -141 -30 -9 -62 -19 -70 -22 -8 -3 -19 -7 -25 -8 -112 -28
-157 -37 -190 -40 -22 -2 -40 -4 -40 -5 0 -10 -217 -22 -370 -22 -66 0 -120 1
-120 2 0 0 -94 2 -210 5 -115 2 -223 4 -239 4 l-28 1 7 77 c4 43 8 80 10 83 2
3 6 21 9 40 3 19 12 71 20 115 8 44 18 100 21 125 4 24 8 47 10 50 2 3 6 23 9
45 12 75 37 209 48 254 2 10 -8 17 -32 21 -49 8 -742 6 -757 -3 -6 -4 -15 -26
-19 -50 -4 -23 -8 -44 -9 -47 -12 -54 -21 -95 -31 -155 -3 -16 -12 -61 -21
-100 -22 -105 -22 -107 -30 -145 -4 -19 -8 -37 -8 -40 -1 -3 -5 -23 -9 -45 -5
-22 -23 -110 -41 -195 -18 -85 -36 -168 -39 -185 -9 -54 -16 -90 -22 -115 -3
-14 -8 -34 -10 -45 -6 -33 -11 -55 -39 -190 -15 -71 -29 -141 -31 -155 -3 -14
-7 -33 -10 -42 -3 -10 -7 -29 -10 -43 -7 -44 -25 -132 -39 -195 -3 -14 -8 -41
-11 -60 -9 -49 -9 -52 -17 -75 -3 -11 -8 -36 -11 -55 -3 -19 -8 -44 -10 -55
-7 -31 -56 -267 -61 -293 -2 -12 -6 -30 -9 -40 -3 -9 -7 -33 -10 -52 -3 -19
-13 -66 -21 -105 -9 -38 -18 -81 -20 -95 -12 -80 -24 -120 -35 -120 -10 0 -33
48 -120 260 -73 176 -145 348 -166 395 -10 22 -18 45 -20 50 -1 6 -13 35 -27
65 -14 30 -60 138 -102 240 -42 102 -82 196 -88 210 -5 14 -11 27 -12 30 0 3
-6 15 -13 28 -7 12 -11 22 -8 22 2 0 -8 26 -23 58 -16 31 -34 75 -41 97 -7 22
-16 45 -19 50 -4 6 -20 42 -36 80 -15 39 -39 94 -52 123 -12 29 -23 55 -23 58
0 3 -12 31 -26 62 -15 31 -32 73 -40 92 -7 19 -26 67 -42 105 -17 39 -66 156
-109 260 -44 105 -108 256 -142 336 l-62 146 -369 -1 c-203 -1 -371 -3 -373
-6 -3 -3 47 -124 110 -270 63 -146 117 -272 120 -280 21 -50 117 -277 123
-290 4 -8 16 -35 26 -60 9 -25 30 -73 45 -107 16 -35 45 -102 65 -150 20 -49
42 -101 49 -118 7 -16 59 -138 115 -270 56 -132 108 -253 115 -270 7 -16 46
-106 85 -200 40 -93 81 -188 90 -210 10 -22 44 -101 75 -175 31 -74 64 -151
72 -170 22 -51 36 -83 83 -195 23 -55 62 -147 87 -205 25 -58 49 -114 53 -125
5 -11 17 -40 28 -65 25 -55 59 -137 147 -345 86 -204 156 -365 211 -483 24
-52 44 -95 44 -97 0 -1 32 -69 70 -149 39 -81 70 -149 70 -151 0 -2 27 -61 60
-131 33 -69 60 -128 60 -129 0 -2 19 -43 41 -92 23 -48 55 -117 71 -153 16
-36 44 -93 61 -128 33 -67 38 -66 51 4 3 16 17 83 31 149 14 66 27 129 30 140
2 11 7 31 10 45 3 14 7 36 10 50 6 33 9 44 40 185 15 66 28 129 30 140 2 11 6
29 8 40 8 30 35 156 42 195 3 19 7 40 9 45 2 6 7 29 11 53 4 23 12 45 18 49 6
4 169 8 361 9 319 2 546 9 666 19 179 14 238 20 308 30 57 9 96 14 146 20 27
3 52 8 56 10 3 2 24 6 46 9 21 3 50 8 64 11 14 2 35 7 48 9 13 3 78 19 145 36
67 18 130 33 139 35 9 2 27 9 40 16 13 7 23 11 23 9 0 -21 351 133 464 205 22
14 45 25 50 25 5 0 11 3 13 8 2 4 35 30 73 57 125 89 300 275 364 388 12 20
30 53 41 73 43 76 109 270 126 373 3 14 7 32 9 38 25 71 25 409 0 558 -3 17
-7 45 -10 62 -3 18 -6 35 -6 38 1 9 -59 167 -73 194 -8 14 -22 43 -32 64 -57
117 -238 288 -386 364 -100 52 -276 111 -376 126 -35 5 -35 14 0 25 29 9 95
24 123 27 84 11 320 126 433 211 102 77 226 203 285 292 38 57 117 206 122
232 3 13 38 127 45 146 11 28 10 311 -1 344 -5 14 -10 41 -13 60 -10 90 -91
264 -167 360 -29 36 -79 88 -112 115 -32 28 -64 55 -71 61 -29 27 -260 154
-280 154 -2 0 -17 5 -33 12 -15 6 -30 12 -33 13 -3 1 -12 4 -20 8 -101 39
-381 101 -555 123 -98 12 -111 13 -185 19 -41 4 -91 9 -110 11 -19 3 -195 7
-390 10 -520 7 -4202 11 -4227 4z m4222 -2493 c39 -3 106 -12 150 -22 44 -9
91 -19 105 -21 14 -3 43 -10 65 -16 22 -6 47 -12 55 -13 8 -2 15 -4 15 -5 0
-1 8 -3 19 -5 65 -12 271 -112 346 -168 90 -67 210 -202 210 -236 0 -6 4 -11
9 -11 5 0 11 -8 14 -17 3 -10 15 -45 27 -78 46 -124 53 -168 53 -325 1 -87 -5
-147 -17 -195 -21 -82 -94 -238 -131 -277 -14 -15 -25 -30 -25 -33 0 -3 -28
-33 -62 -66 -65 -63 -183 -150 -253 -188 -22 -12 -47 -26 -55 -31 -29 -18
-126 -57 -195 -80 -38 -13 -76 -28 -82 -33 -7 -5 -13 -7 -13 -4 0 4 -19 0 -41
-9 -23 -8 -51 -16 -63 -18 -12 -2 -39 -9 -61 -14 -22 -6 -56 -14 -75 -17 -19
-3 -57 -10 -85 -15 -27 -5 -63 -12 -80 -15 -16 -3 -41 -7 -55 -10 -29 -6 -109
-14 -200 -20 -131 -9 -595 -5 -595 5 0 2 -74 11 -120 14 -39 2 -40 3 -39 37 1
34 11 101 19 129 2 8 6 26 9 40 3 14 8 36 11 50 3 14 8 36 11 50 2 14 7 36 10
50 3 14 8 39 11 55 2 17 9 47 14 68 6 21 12 51 14 67 2 16 6 37 9 47 5 17 14
65 21 108 2 11 13 63 25 115 11 52 23 106 26 120 3 14 12 59 21 100 8 41 17
86 19 100 3 14 7 33 10 43 3 10 8 34 10 54 3 20 7 39 9 43 3 4 7 25 11 45 3
21 7 45 9 54 2 9 22 104 45 211 23 107 43 209 46 225 8 48 25 84 43 89 25 8
106 15 226 22 60 3 111 6 112 8 4 3 365 -2 438 -7z"/>
</g>
</svg>
